<svg width="28" height="19" viewBox="0 0 28 19" fill="none" xmlns="http://www.w3.org/2000/svg">
<path d="M27.6745 7.04727V11.9527H19.9303V7.04727H27.6745ZM10.128 18.9309H17.8373V14.0255H10.128V18.9309ZM27.6745 4.11091C27.6745 1.83091 25.8257 0 23.5233 0H19.9652V4.90545H27.6745V4.11091ZM10.128 0V4.90545H17.8373V0H10.128ZM0.290771 7.04727V11.9527H8.00008V7.04727H0.290771ZM19.9303 18.9309H23.4884C25.7908 18.9309 27.6396 17.1 27.6396 14.82V14.0255H19.9303V18.9309ZM0.290771 14.82C0.290771 17.1 2.13961 18.9309 4.44193 18.9309H8.00008V14.0255H0.290771V14.82ZM0.290771 4.11091V4.90545H8.00008V0H4.44193C2.13961 0 0.290771 1.83091 0.290771 4.11091Z" fill="#DA291C"/>
</svg>
